<?xml version="1.0" encoding="UTF-8"?>
<svg width="281px" height="326px" viewBox="0 0 281 326" version="1.1" xmlns="http://www.w3.org/2000/svg" xmlns:xlink="http://www.w3.org/1999/xlink">
    <!-- Generator: Sketch 51.1 (57501) - http://www.bohemiancoding.com/sketch -->
    <title>Group 4</title>
    <desc>Created with Sketch.</desc>
    <defs>
        <linearGradient x1="50%" y1="0%" x2="50%" y2="100%" id="linearGradient-1">
            <stop stop-color="#FFFFFF" stop-opacity="0.5" offset="0%"></stop>
            <stop stop-color="#000000" stop-opacity="0.5" offset="100%"></stop>
        </linearGradient>
        <path d="M138,273 C137.444444,277.166667 136.611111,279.25 135.5,279.25 C134.944495,279.25 134.416763,278.729262 133.916804,277.687786 C133.583437,276.993341 133.277835,275.430746 133,273" id="path-2"></path>
    </defs>
    <g id="Page-1" stroke="none" stroke-width="1" fill="none" fill-rule="evenodd">
        <g id="Group-4" transform="translate(8.000000, 7.000000)">
            <path d="M33.25,102.685085 L33.25,314.993703 L233.210085,314.993703 L233.210085,102.685085 L133.230043,13.3582096 L33.25,102.685085 Z" id="Rectangle-5" stroke="#979797" stroke-width="6.5" fill="#738B8A"></path>
            <polyline id="Line-3" stroke="#738B8A" stroke-width="10" fill="#A7CFC0" stroke-linecap="square" points="265.916619 118.939886 130.12941 0 0 118.939886"></polyline>
            <g id="dog-bone" transform="translate(131.399189, 83.781746) rotate(45.000000) translate(-131.399189, -83.781746) translate(76.899189, 28.281746)" fill="#FFDA44" fill-rule="nonzero">
                <path d="M92.7417782,16.3283194 C92.9136211,12.0956649 91.415185,7.81306748 88.2338181,4.57926946 C82.2027325,-1.55133735 72.4620994,-1.51388023 66.4310138,4.61672658 C61.6651051,9.46118076 60.5964606,16.603005 63.4584625,22.5462013 L22.174392,64.523147 C16.3275554,61.6139774 9.30152498,62.7002339 4.53561622,67.544688 C-1.49546936,73.6626843 -1.5200359,83.5888211 4.51104968,89.719303 C7.69241661,92.9531011 11.893295,94.4638716 16.0573235,94.2891965 C15.8853577,98.5217262 17.3839167,102.804448 20.5652836,106.025761 C26.5963692,112.156243 36.3370023,112.118786 42.3680879,105.988304 C47.1341195,101.143725 48.1903578,94.0020253 45.3284788,88.0587041 L86.6125493,46.094244 C92.4595086,49.0034137 99.4854163,47.9171572 104.251448,43.072703 C110.282533,36.9420962 110.3071,27.0159594 104.275892,20.8856023 C101.094402,17.6644149 96.9058067,16.1535195 92.7417782,16.3283194 Z" id="Shape"></path>
            </g>
            <text id="Bill" font-family="HiraKakuStd-W8, Hiragino Kaku Gothic Std" font-size="20" font-weight="600" fill="#000000">
                <tspan x="115" y="92">Bill</tspan>
            </text>
            <path d="M84.6081156,187.472262 C109.824347,154.842579 160.256809,154.842579 185.47304,187.472262 C202.283861,209.225383 202.283861,252.731626 185.47304,317.99099 L84.6081156,317.99099 C67.7972948,252.731626 67.7972948,209.225383 84.6081156,187.472262 Z" id="Rectangle-7" fill="#F6B6B6"></path>
            <path d="M100.410699,264.892153 C100.410699,257.575889 101.106688,258.19922 104.5,253.892153 C107.250233,250.401335 114.5,250.836894 114.5,245.892153 C114.5,234.846458 118.717268,240.392153 108.5,240.392153 C98.2827321,240.392153 90,249.346458 90,260.392153 C90,271.437848 100.410699,289.5 100.410699,264.892153 Z" id="Oval-3" stroke="#979797" stroke-width="2" fill="#D8D8D8"></path>
            <path d="M164.410699,264.892153 C164.410699,257.785049 165.106688,258.19922 168.5,253.892153 C171.250233,250.401335 178.5,250.836894 178.5,245.892153 C178.5,234.846458 182.717268,240.392153 172.5,240.392153 C162.282732,240.392153 154,249.346458 154,260.392153 C154,271.437848 164.410699,289 164.410699,264.892153 Z" id="Oval-3" stroke="#979797" stroke-width="2" fill="#D8D8D8" transform="translate(166.681203, 257.989662) scale(-1, 1) translate(-166.681203, -257.989662) "></path>
            <path d="M135.217851,290 C146.568928,290 154.095124,282.363883 159.5,274.5 C162.351391,270.351338 164.160184,268.673324 166.613684,262.5 C173.717851,244.625 152.557291,235 135.217851,235 C117.878411,235 98.7803511,241.645833 103.822018,262.5 C105.694581,270.245601 111.308295,275.787021 114.5,280 C119.901604,287.129996 124.318581,290 135.217851,290 Z" id="Oval" stroke="#979797" stroke-width="2" fill="#E1E1E1"></path>
            <circle id="Oval-2" fill="#525252" cx="145.5" cy="253.5" r="3.5"></circle>
            <circle id="Oval-2" fill="#525252" cx="123.5" cy="253.5" r="3.5"></circle>
            <g id="Line-5" stroke-linecap="square">
                <use fill="url(#linearGradient-1)" fill-rule="evenodd" xlink:href="#path-2"></use>
                <use stroke="#979797" stroke-width="1" fill="#FFC4C4" fill-rule="evenodd" xlink:href="#path-2"></use>
                <use stroke="#979797" stroke-width="1" xlink:href="#path-2"></use>
            </g>
            <path d="M136,271 C137.141568,272.850476 137.974902,274.017143 138.5,274.5 C140.180471,276.045286 141.592172,276 142.5,276 C143.833333,276 145.5,274.666667 147.5,272" id="Line-4" stroke="#979797" stroke-width="3" stroke-linecap="round" stroke-linejoin="round" stroke-dasharray="1,1,1"></path>
            <path d="M123,271 C124.141568,272.850476 124.974902,274.017143 125.5,274.5 C127.180471,276.045286 128.592172,276 129.5,276 C130.833333,276 132.5,274.666667 134.5,272" id="Line-4" stroke="#979797" stroke-width="3" stroke-linecap="round" stroke-linejoin="round" stroke-dasharray="1,1,1,1" transform="translate(128.750000, 273.500069) scale(-1, 1) translate(-128.750000, -273.500069) "></path>
            <path d="M137.514453,264.200177 L141.028905,268.886113 C141.360276,269.327941 141.270733,269.954742 140.828905,270.286113 C140.655809,270.415935 140.445275,270.486113 140.228905,270.486113 L130,270.486113 C129.447715,270.486113 129,270.038398 129,269.486113 C129,269.269743 129.070178,269.059209 129.2,268.886113 L132.714453,264.200177 C133.708565,262.874693 135.588969,262.606064 136.914453,263.600177 C137.14187,263.770739 137.34389,263.97276 137.514453,264.200177 Z" id="Triangle" stroke="#979797" stroke-width="2" fill="#D8D8D8" transform="translate(135.114482, 266.743057) scale(-1, -1) translate(-135.114482, -266.743057) "></path>
        </g>
    </g>
</svg>