<?xml version="1.0" encoding="UTF-8"?>
<svg width="29px" height="27px" viewBox="0 0 29 27" version="1.1" xmlns="http://www.w3.org/2000/svg" xmlns:xlink="http://www.w3.org/1999/xlink">
    <!-- Generator: Sketch 51.1 (57501) - http://www.bohemiancoding.com/sketch -->
    <title>Group 3</title>
    <desc>Created with Sketch.</desc>
    <defs></defs>
    <g id="Page-1" stroke="none" stroke-width="1" fill="none" fill-rule="evenodd">
        <g id="Group-3" transform="translate(0.000000, 1.000000)">
            <g id="Group-2" transform="translate(10.000000, 0.000000)" fill="#895A5A" stroke="#738B8A" stroke-width="0.25">
                <rect id="Rectangle-8" x="0" y="0" width="2" height="3"></rect>
            </g>
            <path d="M9.72240592,2.25 L5.38882425,11.75 L27.6139588,11.75 L23.355272,2.25 L9.72240592,2.25 Z" id="Rectangle-3" stroke="#738B8A" stroke-width="0.5" fill="#A7CFC0"></path>
            <rect id="Rectangle-4" stroke="#738B8A" stroke-width="0.5" fill="#A5D5F2" x="4.25" y="11.25" width="24.5" height="14.5"></rect>
            <rect id="Rectangle-11" stroke="#738B8A" stroke-width="0.5" fill="#F6B6B6" x="14.25" y="18.25" width="4.5" height="7.5"></rect>
            <g id="Group" transform="translate(0.000000, 23.000000)" fill="#738B8A" stroke="#738B8A" stroke-width="0.25">
                <path d="M0.43145079,0.125 C0.226916928,0.832775996 0.125,1.35159434 0.125,1.67604781 C0.125,1.99316204 0.223110657,2.39353141 0.420938192,2.875 L2.6049752,2.875 C2.78529002,2.27986441 2.875,1.82035713 2.875,1.5 C2.875,1.17964287 2.78529002,0.720135595 2.6049752,0.125 L0.43145079,0.125 Z" id="Rectangle-6"></path>
            </g>
            <rect id="Rectangle-12" stroke="#738B8A" stroke-width="0.5" fill="#F9F6B3" x="7.25" y="17.25" width="3.5" height="4.5"></rect>
            <path d="M7.5,19.5 L10.5,19.5" id="Line" stroke="#738B8A" stroke-width="0.5" stroke-linecap="square"></path>
            <rect id="Rectangle-12" stroke="#738B8A" stroke-width="0.5" fill="#F9F6B3" x="22.25" y="17.25" width="3.5" height="4.5"></rect>
            <path d="M22.5,19.5 L25.5,19.5" id="Line" stroke="#738B8A" stroke-width="0.5" stroke-linecap="square"></path>
            <rect id="Rectangle-10" fill="#947575" x="15" y="19" width="3" height="3"></rect>
            <rect id="Rectangle-10" fill="#947575" x="15" y="23" width="3" height="2"></rect>
            <path d="M10.5,5.25 L14.5,5.25" id="Line-2" stroke="#738B8A" stroke-width="0.25" stroke-linecap="square"></path>
            <path d="M15.5,5.25 L17.5,5.25" id="Line-2" stroke="#738B8A" stroke-width="0.25" stroke-linecap="square"></path>
            <path d="M8.5,8.25 L12.5,8.25" id="Line-2" stroke="#738B8A" stroke-width="0.25" stroke-linecap="square"></path>
            <path d="M15.5,9.25 L24.5,9.25" id="Line-2" stroke="#738B8A" stroke-width="0.25" stroke-linecap="square"></path>
            <path d="M21.5,7.20833333 L25.5,7.20833333" id="Line-2" stroke="#738B8A" stroke-width="0.25" stroke-linecap="square"></path>
            <path d="M0.954211722,22 C0.954211722,22 0.954211722,22 0.954211722,22 C1.09352047,22 1.45421172,22.6218505 1.45421172,22.5 C1.45421172,22.3267074 1.45421172,21.5 1.45421172,21.5 C2.66659822,21.5 1.95421172,22 1.95421172,22.5 C1.95421172,22.5541138 2.15175896,22.1746389 2.45421172,22 C2.58314493,21.9255528 2.54020623,22.3710082 2.45421172,22.5 C2.39688205,22.5859945 2.23021538,22.7526612 1.95421172,23 L0.954211722,23 L0.702287164,22.8320503 C0.493586026,22.6929162 0.437190793,22.41094 0.576324884,22.2022389 C0.660556664,22.0758912 0.802360723,22 0.954211722,22 Z" id="Rectangle" fill="#A7CFC0"></path>
        </g>
    </g>
</svg>